<?xml version="1.0" encoding="UTF-8"?>
<!DOCTYPE svg PUBLIC "-//W3C//DTD SVG 1.1//EN" "http://www.w3.org/Graphics/SVG/1.1/DTD/svg11.dtd">
<svg version="1.2" width="210.26mm" height="297.26mm" viewBox="0 0 21026 29726" preserveAspectRatio="xMidYMid" fill-rule="evenodd" stroke-width="28.222" stroke-linejoin="round" xmlns="http://www.w3.org/2000/svg" xmlns:ooo="http://xml.openoffice.org/svg/export" xmlns:xlink="http://www.w3.org/1999/xlink" xmlns:presentation="http://sun.com/xmlns/staroffice/presentation" xmlns:smil="http://www.w3.org/2001/SMIL20/" xmlns:anim="urn:oasis:names:tc:opendocument:xmlns:animation:1.0" xml:space="preserve">
 <defs class="ClipPathGroup">
  <clipPath id="presentation_clip_path" clipPathUnits="userSpaceOnUse">
   <rect x="0" y="0" width="21026" height="29726"/>
  </clipPath>
  <clipPath id="presentation_clip_path_shrink" clipPathUnits="userSpaceOnUse">
   <rect x="21" y="29" width="20984" height="29667"/>
  </clipPath>
 </defs>
 <defs class="TextShapeIndex">
  <g ooo:slide="id1" ooo:id-list="id3 id4 id5 id6 id7 id8 id9"/>
 </defs>
 <defs class="EmbeddedBulletChars">
  <g id="bullet-char-template-57356" transform="scale(0.00048828125,-0.00048828125)">
   <path d="M 580,1141 L 1163,571 580,0 -4,571 580,1141 Z"/>
  </g>
  <g id="bullet-char-template-57354" transform="scale(0.00048828125,-0.00048828125)">
   <path d="M 8,1128 L 1137,1128 1137,0 8,0 8,1128 Z"/>
  </g>
  <g id="bullet-char-template-10146" transform="scale(0.00048828125,-0.00048828125)">
   <path d="M 174,0 L 602,739 174,1481 1456,739 174,0 Z M 1358,739 L 309,1346 659,739 1358,739 Z"/>
  </g>
  <g id="bullet-char-template-10132" transform="scale(0.00048828125,-0.00048828125)">
   <path d="M 2015,739 L 1276,0 717,0 1260,543 174,543 174,936 1260,936 717,1481 1274,1481 2015,739 Z"/>
  </g>
  <g id="bullet-char-template-10007" transform="scale(0.00048828125,-0.00048828125)">
   <path d="M 0,-2 C -7,14 -16,27 -25,37 L 356,567 C 262,823 215,952 215,954 215,979 228,992 255,992 264,992 276,990 289,987 310,991 331,999 354,1012 L 381,999 492,748 772,1049 836,1024 860,1049 C 881,1039 901,1025 922,1006 886,937 835,863 770,784 769,783 710,716 594,584 L 774,223 C 774,196 753,168 711,139 L 727,119 C 717,90 699,76 672,76 641,76 570,178 457,381 L 164,-76 C 142,-110 111,-127 72,-127 30,-127 9,-110 8,-76 1,-67 -2,-52 -2,-32 -2,-23 -1,-13 0,-2 Z"/>
  </g>
  <g id="bullet-char-template-10004" transform="scale(0.00048828125,-0.00048828125)">
   <path d="M 285,-33 C 182,-33 111,30 74,156 52,228 41,333 41,471 41,549 55,616 82,672 116,743 169,778 240,778 293,778 328,747 346,684 L 369,508 C 377,444 397,411 428,410 L 1163,1116 C 1174,1127 1196,1133 1229,1133 1271,1133 1292,1118 1292,1087 L 1292,965 C 1292,929 1282,901 1262,881 L 442,47 C 390,-6 338,-33 285,-33 Z"/>
  </g>
  <g id="bullet-char-template-9679" transform="scale(0.00048828125,-0.00048828125)">
   <path d="M 813,0 C 632,0 489,54 383,161 276,268 223,411 223,592 223,773 276,916 383,1023 489,1130 632,1184 813,1184 992,1184 1136,1130 1245,1023 1353,916 1407,772 1407,592 1407,412 1353,268 1245,161 1136,54 992,0 813,0 Z"/>
  </g>
  <g id="bullet-char-template-8226" transform="scale(0.00048828125,-0.00048828125)">
   <path d="M 346,457 C 273,457 209,483 155,535 101,586 74,649 74,723 74,796 101,859 155,911 209,963 273,989 346,989 419,989 480,963 531,910 582,859 608,796 608,723 608,648 583,586 532,535 482,483 420,457 346,457 Z"/>
  </g>
  <g id="bullet-char-template-8211" transform="scale(0.00048828125,-0.00048828125)">
   <path d="M -4,459 L 1135,459 1135,606 -4,606 -4,459 Z"/>
  </g>
  <g id="bullet-char-template-61548" transform="scale(0.00048828125,-0.00048828125)">
   <path d="M 173,740 C 173,903 231,1043 346,1159 462,1274 601,1332 765,1332 928,1332 1067,1274 1183,1159 1299,1043 1357,903 1357,740 1357,577 1299,437 1183,322 1067,206 928,148 765,148 601,148 462,206 346,322 231,437 173,577 173,740 Z"/>
  </g>
 </defs>
 <g>
  <g id="id2" class="Master_Slide">
   <g id="bg-id2" class="Background"/>
   <g id="bo-id2" class="BackgroundObjects"/>
  </g>
 </g>
 <g class="SlideGroup">
  <g>
   <g id="container-id1">
    <g id="id1" class="Slide" clip-path="url(#presentation_clip_path)">
     <g class="Page">
      <g class="Graphic">
       <g id="id3">
        <rect class="BoundingBox" stroke="none" fill="none" x="0" y="0" width="21026" height="29726"/>
        <path fill="rgb(52,101,164)" stroke="none" d="M 13263,7888 C 13263,8437 13136,8976 12895,9451 12653,9926 12306,10321 11888,10595 11470,10870 10995,11014 10513,11014 10031,11014 9556,10870 9138,10595 8720,10321 8373,9926 8131,9451 7890,8976 7763,8437 7763,7888 7763,7340 7890,6801 8131,6326 8373,5851 8720,5456 9138,5182 9556,4907 10031,4763 10513,4763 10995,4763 11470,4907 11888,5182 12306,5456 12653,5851 12895,6326 13136,6801 13263,7340 13263,7888 L 13263,7888 13263,7888 Z"/>
        <path fill="none" stroke="rgb(52,101,164)" stroke-width="28" stroke-linejoin="round" d="M 13263,7888 C 13263,8437 13136,8976 12895,9451 12653,9926 12306,10321 11888,10595 11470,10870 10995,11014 10513,11014 10031,11014 9556,10870 9138,10595 8720,10321 8373,9926 8131,9451 7890,8976 7763,8437 7763,7888 7763,7340 7890,6801 8131,6326 8373,5851 8720,5456 9138,5182 9556,4907 10031,4763 10513,4763 10995,4763 11470,4907 11888,5182 12306,5456 12653,5851 12895,6326 13136,6801 13263,7340 13263,7888 Z"/>
        <path fill="rgb(52,101,164)" stroke="none" d="M 15447,14638 L 15446,14511 15441,14385 15434,14258 15423,14132 15410,14006 15393,13880 15374,13755 15352,13630 15327,13506 15299,13383 15268,13261 15234,13139 15197,13018 15158,12898 15115,12780 15070,12662 15022,12546 14972,12431 14918,12317 14862,12205 14804,12094 14743,11985 14679,11877 14613,11771 14544,11667 14473,11564 14399,11464 14324,11365 14245,11269 14165,11174 14083,11082 13998,10992 13911,10904 13822,10818 13731,10735 13638,10654 13544,10575 13447,10499 13349,10426 13249,10355 13147,10287 13044,10221 12940,10158 12833,10098 12726,10040 12617,9986 12507,9934 12396,9885 12283,9839 12170,9796 12056,9756 11940,9719 11824,9685 11707,9654 11590,9626 11471,9601 11352,9579 11233,9560 11114,9545 10994,9532 10873,9523 10753,9517 10632,9513 10512,9513 10392,9517 10272,9523 10151,9532 10031,9545 9912,9560 9793,9579 9674,9601 9555,9626 9438,9654 9321,9685 9205,9719 9089,9756 8975,9796 8862,9839 8749,9885 8638,9934 8528,9986 8419,10040 8312,10098 8205,10158 8101,10221 7998,10287 7896,10355 7796,10426 7698,10499 7601,10575 7507,10654 7414,10735 7323,10818 7234,10904 7147,10992 7062,11082 6980,11174 6900,11269 6821,11365 6746,11464 6672,11564 6601,11667 6532,11771 6466,11877 6402,11985 6341,12094 6283,12205 6227,12317 6173,12431 6123,12546 6075,12662 6030,12780 5987,12898 5948,13018 5911,13139 5877,13261 5846,13383 5818,13506 5793,13630 5771,13755 5752,13880 5735,14006 5722,14132 5711,14258 5704,14385 5699,14511 5698,14638 8135,14638 8138,14510 8147,14383 8162,14256 8183,14130 8210,14006 8243,13883 8282,13761 8326,13642 8376,13526 8432,13412 8493,13302 8559,13194 8630,13090 8705,12991 8786,12895 8871,12803 8960,12716 9053,12634 9150,12557 9250,12485 9354,12418 9461,12357 9570,12302 9682,12252 9797,12208 9913,12171 10030,12139 10150,12114 10270,12095 10391,12082 10512,12076 10633,12076 10754,12082 10875,12095 10995,12114 11115,12139 11232,12171 11348,12208 11463,12252 11575,12302 11684,12357 11791,12418 11895,12485 11995,12557 12092,12634 12185,12716 12274,12803 12359,12895 12440,12991 12515,13090 12586,13194 12652,13302 12713,13412 12769,13526 12819,13642 12863,13761 12902,13883 12935,14006 12962,14130 12983,14256 12998,14383 13007,14510 13010,14638 15447,14638 15447,14638 Z"/>
        <path fill="none" stroke="rgb(52,101,164)" stroke-width="28" stroke-linejoin="round" d="M 15447,14638 L 15446,14511 15441,14385 15434,14258 15423,14132 15410,14006 15393,13880 15374,13755 15352,13630 15327,13506 15299,13383 15268,13261 15234,13139 15197,13018 15158,12898 15115,12780 15070,12662 15022,12546 14972,12431 14918,12317 14862,12205 14804,12094 14743,11985 14679,11877 14613,11771 14544,11667 14473,11564 14399,11464 14324,11365 14245,11269 14165,11174 14083,11082 13998,10992 13911,10904 13822,10818 13731,10735 13638,10654 13544,10575 13447,10499 13349,10426 13249,10355 13147,10287 13044,10221 12940,10158 12833,10098 12726,10040 12617,9986 12507,9934 12396,9885 12283,9839 12170,9796 12056,9756 11940,9719 11824,9685 11707,9654 11590,9626 11471,9601 11352,9579 11233,9560 11114,9545 10994,9532 10873,9523 10753,9517 10632,9513 10512,9513 10392,9517 10272,9523 10151,9532 10031,9545 9912,9560 9793,9579 9674,9601 9555,9626 9438,9654 9321,9685 9205,9719 9089,9756 8975,9796 8862,9839 8749,9885 8638,9934 8528,9986 8419,10040 8312,10098 8205,10158 8101,10221 7998,10287 7896,10355 7796,10426 7698,10499 7601,10575 7507,10654 7414,10735 7323,10818 7234,10904 7147,10992 7062,11082 6980,11174 6900,11269 6821,11365 6746,11464 6672,11564 6601,11667 6532,11771 6466,11877 6402,11985 6341,12094 6283,12205 6227,12317 6173,12431 6123,12546 6075,12662 6030,12780 5987,12898 5948,13018 5911,13139 5877,13261 5846,13383 5818,13506 5793,13630 5771,13755 5752,13880 5735,14006 5722,14132 5711,14258 5704,14385 5699,14511 5698,14638 8135,14638 8138,14510 8147,14383 8162,14256 8183,14130 8210,14006 8243,13883 8282,13761 8326,13642 8376,13526 8432,13412 8493,13302 8559,13194 8630,13090 8705,12991 8786,12895 8871,12803 8960,12716 9053,12634 9150,12557 9250,12485 9354,12418 9461,12357 9570,12302 9682,12252 9797,12208 9913,12171 10030,12139 10150,12114 10270,12095 10391,12082 10512,12076 10633,12076 10754,12082 10875,12095 10995,12114 11115,12139 11232,12171 11348,12208 11463,12252 11575,12302 11684,12357 11791,12418 11895,12485 11995,12557 12092,12634 12185,12716 12274,12803 12359,12895 12440,12991 12515,13090 12586,13194 12652,13302 12713,13412 12769,13526 12819,13642 12863,13761 12902,13883 12935,14006 12962,14130 12983,14256 12998,14383 13007,14510 13010,14638 15447,14638 15447,14638 Z"/>
        <path fill="rgb(52,101,164)" stroke="none" d="M 10572,14643 L 7723,14643 7723,11513 13422,11513 13422,14643 10572,14643 10572,14643 Z"/>
        <path fill="none" stroke="rgb(52,101,164)" stroke-width="28" stroke-linejoin="round" d="M 10572,14643 L 7723,14643 7723,11513 13422,11513 13422,14643 10572,14643 10572,14643 Z"/>
        <path fill="none" stroke="rgb(52,101,164)" stroke-width="353" stroke-linejoin="round" d="M 5693,14643 L 15452,14643"/>
        <path fill="none" stroke="rgb(52,101,164)" stroke-width="670" stroke-linejoin="round" stroke-linecap="round" d="M 5763,18262 L 15262,18262"/>
        <path fill="none" stroke="rgb(52,101,164)" stroke-width="670" stroke-linejoin="round" stroke-linecap="round" d="M 5763,21012 L 15262,21012"/>
        <path fill="none" stroke="rgb(52,101,164)" stroke-width="670" stroke-linejoin="round" stroke-linecap="round" d="M 5763,24012 L 15262,24012"/>
        <path fill="rgb(52,101,164)" stroke="none" d="M 3618,1013 L 3618,1013 C 3161,1013 2712,1133 2316,1362 1919,1591 1591,1919 1362,2316 1133,2712 1013,3161 1013,3618 L 1013,26107 1013,26108 C 1013,26565 1133,27014 1362,27411 1591,27807 1919,28135 2316,28364 2712,28593 3161,28713 3618,28713 L 17408,28713 17408,28713 C 17865,28713 18314,28593 18711,28364 19107,28135 19435,27807 19664,27411 19893,27014 20013,26565 20013,26108 L 20013,3618 20013,3618 20013,3618 C 20013,3161 19893,2712 19664,2316 19435,1919 19107,1591 18711,1362 18314,1133 17865,1013 17408,1013 L 3618,1013 3618,1013 Z"/>
        <path fill="none" stroke="rgb(52,101,164)" stroke-width="28" stroke-linejoin="round" d="M 3618,1013 L 3618,1013 C 3161,1013 2712,1133 2316,1362 1919,1591 1591,1919 1362,2316 1133,2712 1013,3161 1013,3618 L 1013,26107 1013,26108 C 1013,26565 1133,27014 1362,27411 1591,27807 1919,28135 2316,28364 2712,28593 3161,28713 3618,28713 L 17408,28713 17408,28713 C 17865,28713 18314,28593 18711,28364 19107,28135 19435,27807 19664,27411 19893,27014 20013,26565 20013,26108 L 20013,3618 20013,3618 20013,3618 C 20013,3161 19893,2712 19664,2316 19435,1919 19107,1591 18711,1362 18314,1133 17865,1013 17408,1013 L 3618,1013 Z"/>
        <path fill="rgb(255,255,255)" stroke="none" d="M 4185,1763 L 4186,1763 C 3761,1763 3343,1875 2974,2088 2606,2300 2300,2606 2088,2975 1875,3343 1763,3761 1763,4186 L 1763,25490 1763,25490 C 1763,25915 1875,26333 2088,26702 2300,27070 2606,27376 2975,27588 3343,27801 3761,27913 4186,27913 L 16840,27913 16840,27913 C 17265,27913 17683,27801 18052,27588 18420,27376 18726,27070 18938,26701 19151,26333 19263,25915 19263,25490 L 19263,4186 19263,4186 19263,4186 C 19263,3761 19151,3343 18938,2974 18726,2606 18420,2300 18052,2088 17683,1875 17265,1763 16840,1763 L 4185,1763 4185,1763 Z"/>
        <path fill="none" stroke="rgb(52,101,164)" stroke-width="28" stroke-linejoin="round" d="M 4185,1763 L 4186,1763 C 3761,1763 3343,1875 2974,2088 2606,2300 2300,2606 2088,2975 1875,3343 1763,3761 1763,4186 L 1763,25490 1763,25490 C 1763,25915 1875,26333 2088,26702 2300,27070 2606,27376 2975,27588 3343,27801 3761,27913 4186,27913 L 16840,27913 16840,27913 C 17265,27913 17683,27801 18052,27588 18420,27376 18726,27070 18938,26701 19151,26333 19263,25915 19263,25490 L 19263,4186 19263,4186 19263,4186 C 19263,3761 19151,3343 18938,2974 18726,2606 18420,2300 18052,2088 17683,1875 17265,1763 16840,1763 L 4185,1763 Z"/>
        <path fill="rgb(52,101,164)" stroke="none" d="M 13143,7888 C 13143,8437 13016,8976 12775,9451 12533,9926 12186,10321 11768,10595 11350,10870 10875,11014 10394,11014 9911,11014 9436,10870 9018,10595 8600,10321 8253,9926 8011,9451 7770,8976 7643,8437 7643,7889 7643,7340 7770,6801 8011,6326 8253,5851 8600,5456 9018,5182 9436,4907 9911,4763 10394,4763 10875,4763 11350,4907 11768,5182 12186,5456 12533,5851 12775,6326 13016,6801 13143,7340 13143,7888 L 13143,7888 13143,7888 Z"/>
        <path fill="none" stroke="rgb(52,101,164)" stroke-width="28" stroke-linejoin="round" d="M 13143,7888 C 13143,8437 13016,8976 12775,9451 12533,9926 12186,10321 11768,10595 11350,10870 10875,11014 10394,11014 9911,11014 9436,10870 9018,10595 8600,10321 8253,9926 8011,9451 7770,8976 7643,8437 7643,7889 7643,7340 7770,6801 8011,6326 8253,5851 8600,5456 9018,5182 9436,4907 9911,4763 10394,4763 10875,4763 11350,4907 11768,5182 12186,5456 12533,5851 12775,6326 13016,6801 13143,7340 13143,7888 Z"/>
        <path fill="rgb(52,101,164)" stroke="none" d="M 15267,14638 L 15266,14511 15261,14385 15254,14258 15243,14132 15230,14006 15213,13880 15194,13755 15172,13630 15147,13506 15119,13383 15088,13261 15054,13139 15017,13018 14978,12898 14935,12780 14890,12662 14842,12546 14792,12431 14738,12317 14682,12205 14624,12094 14563,11985 14499,11877 14433,11771 14364,11667 14293,11564 14219,11464 14144,11365 14065,11269 13985,11174 13903,11082 13818,10992 13731,10904 13642,10818 13551,10735 13458,10654 13364,10575 13267,10499 13169,10426 13069,10355 12967,10287 12864,10221 12760,10158 12653,10098 12546,10040 12437,9986 12327,9934 12216,9885 12103,9839 11990,9796 11876,9756 11760,9719 11644,9685 11527,9654 11410,9626 11291,9601 11172,9579 11053,9560 10934,9545 10814,9532 10693,9523 10573,9517 10453,9513 10333,9513 10212,9517 10092,9523 9971,9532 9851,9545 9732,9560 9613,9579 9494,9601 9375,9626 9258,9654 9141,9685 9025,9719 8909,9756 8795,9796 8682,9839 8569,9885 8458,9934 8348,9986 8239,10040 8132,10098 8025,10158 7921,10221 7818,10287 7716,10355 7616,10426 7518,10499 7421,10575 7327,10654 7234,10735 7143,10818 7054,10904 6967,10992 6882,11082 6800,11174 6720,11269 6641,11365 6566,11464 6492,11564 6421,11667 6352,11771 6286,11877 6222,11985 6161,12094 6103,12205 6047,12317 5993,12431 5943,12546 5895,12662 5850,12780 5807,12898 5768,13018 5731,13139 5697,13261 5666,13383 5638,13506 5613,13630 5591,13755 5572,13880 5555,14006 5542,14132 5531,14258 5524,14385 5519,14511 5518,14638 7955,14638 7958,14510 7967,14383 7982,14256 8003,14130 8030,14006 8063,13883 8102,13761 8146,13642 8196,13526 8252,13412 8313,13302 8379,13194 8450,13090 8525,12991 8606,12895 8691,12803 8780,12716 8873,12634 8970,12557 9070,12485 9174,12418 9281,12357 9390,12302 9502,12252 9617,12208 9733,12171 9850,12139 9970,12114 10090,12095 10211,12082 10332,12076 10454,12076 10574,12082 10695,12095 10815,12114 10935,12139 11052,12171 11168,12208 11283,12252 11395,12302 11504,12357 11611,12418 11715,12485 11815,12557 11912,12634 12005,12716 12094,12803 12179,12895 12260,12991 12335,13090 12406,13194 12472,13302 12533,13412 12589,13526 12639,13642 12683,13761 12722,13883 12755,14006 12782,14130 12803,14256 12818,14383 12827,14510 12830,14638 15267,14638 15267,14638 Z"/>
        <path fill="none" stroke="rgb(52,101,164)" stroke-width="28" stroke-linejoin="round" d="M 15267,14638 L 15266,14511 15261,14385 15254,14258 15243,14132 15230,14006 15213,13880 15194,13755 15172,13630 15147,13506 15119,13383 15088,13261 15054,13139 15017,13018 14978,12898 14935,12780 14890,12662 14842,12546 14792,12431 14738,12317 14682,12205 14624,12094 14563,11985 14499,11877 14433,11771 14364,11667 14293,11564 14219,11464 14144,11365 14065,11269 13985,11174 13903,11082 13818,10992 13731,10904 13642,10818 13551,10735 13458,10654 13364,10575 13267,10499 13169,10426 13069,10355 12967,10287 12864,10221 12760,10158 12653,10098 12546,10040 12437,9986 12327,9934 12216,9885 12103,9839 11990,9796 11876,9756 11760,9719 11644,9685 11527,9654 11410,9626 11291,9601 11172,9579 11053,9560 10934,9545 10814,9532 10693,9523 10573,9517 10453,9513 10333,9513 10212,9517 10092,9523 9971,9532 9851,9545 9732,9560 9613,9579 9494,9601 9375,9626 9258,9654 9141,9685 9025,9719 8909,9756 8795,9796 8682,9839 8569,9885 8458,9934 8348,9986 8239,10040 8132,10098 8025,10158 7921,10221 7818,10287 7716,10355 7616,10426 7518,10499 7421,10575 7327,10654 7234,10735 7143,10818 7054,10904 6967,10992 6882,11082 6800,11174 6720,11269 6641,11365 6566,11464 6492,11564 6421,11667 6352,11771 6286,11877 6222,11985 6161,12094 6103,12205 6047,12317 5993,12431 5943,12546 5895,12662 5850,12780 5807,12898 5768,13018 5731,13139 5697,13261 5666,13383 5638,13506 5613,13630 5591,13755 5572,13880 5555,14006 5542,14132 5531,14258 5524,14385 5519,14511 5518,14638 7955,14638 7958,14510 7967,14383 7982,14256 8003,14130 8030,14006 8063,13883 8102,13761 8146,13642 8196,13526 8252,13412 8313,13302 8379,13194 8450,13090 8525,12991 8606,12895 8691,12803 8780,12716 8873,12634 8970,12557 9070,12485 9174,12418 9281,12357 9390,12302 9502,12252 9617,12208 9733,12171 9850,12139 9970,12114 10090,12095 10211,12082 10332,12076 10454,12076 10574,12082 10695,12095 10815,12114 10935,12139 11052,12171 11168,12208 11283,12252 11395,12302 11504,12357 11611,12418 11715,12485 11815,12557 11912,12634 12005,12716 12094,12803 12179,12895 12260,12991 12335,13090 12406,13194 12472,13302 12533,13412 12589,13526 12639,13642 12683,13761 12722,13883 12755,14006 12782,14130 12803,14256 12818,14383 12827,14510 12830,14638 15267,14638 15267,14638 Z"/>
        <path fill="rgb(52,101,164)" stroke="none" d="M 10393,14643 L 7543,14643 7543,11513 13242,11513 13242,14643 10393,14643 10393,14643 Z"/>
        <path fill="none" stroke="rgb(52,101,164)" stroke-width="28" stroke-linejoin="round" d="M 10393,14643 L 7543,14643 7543,11513 13242,11513 13242,14643 10393,14643 10393,14643 Z"/>
        <path fill="none" stroke="rgb(52,101,164)" stroke-width="353" stroke-linejoin="round" d="M 5513,14643 L 15272,14643"/>
        <path fill="none" stroke="rgb(52,101,164)" stroke-width="670" stroke-linejoin="round" stroke-linecap="round" d="M 5643,18262 L 15142,18262"/>
        <path fill="none" stroke="rgb(52,101,164)" stroke-width="670" stroke-linejoin="round" stroke-linecap="round" d="M 5643,21012 L 15142,21012"/>
        <path fill="none" stroke="rgb(52,101,164)" stroke-width="670" stroke-linejoin="round" stroke-linecap="round" d="M 5643,24012 L 15142,24012"/>
       </g>
      </g>
      <g class="com.sun.star.drawing.LineShape">
       <g id="id4">
        <rect class="BoundingBox" stroke="none" fill="none" x="4910" y="20660" width="11143" height="743"/>
        <path fill="none" stroke="rgb(255,255,255)" stroke-width="741" stroke-linejoin="round" d="M 5281,21031 L 15681,21031"/>
       </g>
      </g>
      <g class="com.sun.star.drawing.LineShape">
       <g id="id5">
        <rect class="BoundingBox" stroke="none" fill="none" x="4910" y="23660" width="11143" height="743"/>
        <path fill="none" stroke="rgb(255,255,255)" stroke-width="741" stroke-linejoin="round" d="M 5281,24031 L 15681,24031"/>
       </g>
      </g>
      <g class="com.sun.star.drawing.LineShape">
       <g id="id6">
        <rect class="BoundingBox" stroke="none" fill="none" x="4910" y="17910" width="11143" height="743"/>
        <path fill="none" stroke="rgb(255,255,255)" stroke-width="741" stroke-linejoin="round" d="M 5281,18281 L 15681,18281"/>
       </g>
      </g>
      <g class="com.sun.star.drawing.LineShape">
       <g id="id7">
        <rect class="BoundingBox" stroke="none" fill="none" x="5120" y="18213" width="10787" height="647"/>
        <path fill="none" stroke="rgb(52,101,164)" stroke-width="635" stroke-linejoin="round" stroke-linecap="round" d="M 5438,18531 L 15588,18541"/>
       </g>
      </g>
      <g class="com.sun.star.drawing.LineShape">
       <g id="id8">
        <rect class="BoundingBox" stroke="none" fill="none" x="5120" y="22453" width="10787" height="647"/>
        <path fill="none" stroke="rgb(52,101,164)" stroke-width="635" stroke-linejoin="round" stroke-linecap="round" d="M 5438,22771 L 15588,22781"/>
       </g>
      </g>
      <g class="com.sun.star.drawing.LineShape">
       <g id="id9">
        <rect class="BoundingBox" stroke="none" fill="none" x="5120" y="20463" width="10787" height="647"/>
        <path fill="none" stroke="rgb(52,101,164)" stroke-width="635" stroke-linejoin="round" stroke-linecap="round" d="M 5438,20781 L 15588,20791"/>
       </g>
      </g>
     </g>
    </g>
   </g>
  </g>
 </g>
</svg>