<?xml version="1.0" encoding="UTF-8"?>
<!DOCTYPE svg PUBLIC "-//W3C//DTD SVG 1.1//EN" "http://www.w3.org/Graphics/SVG/1.1/DTD/svg11.dtd">
<svg version="1.2" width="300mm" height="300mm" viewBox="0 0 30000 30000" preserveAspectRatio="xMidYMid" fill-rule="evenodd" stroke-width="28.222" stroke-linejoin="round" xmlns="http://www.w3.org/2000/svg" xmlns:ooo="http://xml.openoffice.org/svg/export" xmlns:xlink="http://www.w3.org/1999/xlink" xmlns:presentation="http://sun.com/xmlns/staroffice/presentation" xmlns:smil="http://www.w3.org/2001/SMIL20/" xmlns:anim="urn:oasis:names:tc:opendocument:xmlns:animation:1.0" xml:space="preserve">
 <defs class="ClipPathGroup">
  <clipPath id="presentation_clip_path" clipPathUnits="userSpaceOnUse">
   <rect x="0" y="0" width="30000" height="30000"/>
  </clipPath>
  <clipPath id="presentation_clip_path_shrink" clipPathUnits="userSpaceOnUse">
   <rect x="30" y="30" width="29940" height="29940"/>
  </clipPath>
 </defs>
 <defs class="TextShapeIndex">
  <g ooo:slide="id1" ooo:id-list="id3 id4 id5 id6 id7"/>
 </defs>
 <defs class="EmbeddedBulletChars">
  <g id="bullet-char-template-57356" transform="scale(0.00048828125,-0.00048828125)">
   <path d="M 580,1141 L 1163,571 580,0 -4,571 580,1141 Z"/>
  </g>
  <g id="bullet-char-template-57354" transform="scale(0.00048828125,-0.00048828125)">
   <path d="M 8,1128 L 1137,1128 1137,0 8,0 8,1128 Z"/>
  </g>
  <g id="bullet-char-template-10146" transform="scale(0.00048828125,-0.00048828125)">
   <path d="M 174,0 L 602,739 174,1481 1456,739 174,0 Z M 1358,739 L 309,1346 659,739 1358,739 Z"/>
  </g>
  <g id="bullet-char-template-10132" transform="scale(0.00048828125,-0.00048828125)">
   <path d="M 2015,739 L 1276,0 717,0 1260,543 174,543 174,936 1260,936 717,1481 1274,1481 2015,739 Z"/>
  </g>
  <g id="bullet-char-template-10007" transform="scale(0.00048828125,-0.00048828125)">
   <path d="M 0,-2 C -7,14 -16,27 -25,37 L 356,567 C 262,823 215,952 215,954 215,979 228,992 255,992 264,992 276,990 289,987 310,991 331,999 354,1012 L 381,999 492,748 772,1049 836,1024 860,1049 C 881,1039 901,1025 922,1006 886,937 835,863 770,784 769,783 710,716 594,584 L 774,223 C 774,196 753,168 711,139 L 727,119 C 717,90 699,76 672,76 641,76 570,178 457,381 L 164,-76 C 142,-110 111,-127 72,-127 30,-127 9,-110 8,-76 1,-67 -2,-52 -2,-32 -2,-23 -1,-13 0,-2 Z"/>
  </g>
  <g id="bullet-char-template-10004" transform="scale(0.00048828125,-0.00048828125)">
   <path d="M 285,-33 C 182,-33 111,30 74,156 52,228 41,333 41,471 41,549 55,616 82,672 116,743 169,778 240,778 293,778 328,747 346,684 L 369,508 C 377,444 397,411 428,410 L 1163,1116 C 1174,1127 1196,1133 1229,1133 1271,1133 1292,1118 1292,1087 L 1292,965 C 1292,929 1282,901 1262,881 L 442,47 C 390,-6 338,-33 285,-33 Z"/>
  </g>
  <g id="bullet-char-template-9679" transform="scale(0.00048828125,-0.00048828125)">
   <path d="M 813,0 C 632,0 489,54 383,161 276,268 223,411 223,592 223,773 276,916 383,1023 489,1130 632,1184 813,1184 992,1184 1136,1130 1245,1023 1353,916 1407,772 1407,592 1407,412 1353,268 1245,161 1136,54 992,0 813,0 Z"/>
  </g>
  <g id="bullet-char-template-8226" transform="scale(0.00048828125,-0.00048828125)">
   <path d="M 346,457 C 273,457 209,483 155,535 101,586 74,649 74,723 74,796 101,859 155,911 209,963 273,989 346,989 419,989 480,963 531,910 582,859 608,796 608,723 608,648 583,586 532,535 482,483 420,457 346,457 Z"/>
  </g>
  <g id="bullet-char-template-8211" transform="scale(0.00048828125,-0.00048828125)">
   <path d="M -4,459 L 1135,459 1135,606 -4,606 -4,459 Z"/>
  </g>
  <g id="bullet-char-template-61548" transform="scale(0.00048828125,-0.00048828125)">
   <path d="M 173,740 C 173,903 231,1043 346,1159 462,1274 601,1332 765,1332 928,1332 1067,1274 1183,1159 1299,1043 1357,903 1357,740 1357,577 1299,437 1183,322 1067,206 928,148 765,148 601,148 462,206 346,322 231,437 173,577 173,740 Z"/>
  </g>
 </defs>
 <g>
  <g id="id2" class="Master_Slide">
   <g id="bg-id2" class="Background"/>
   <g id="bo-id2" class="BackgroundObjects"/>
  </g>
 </g>
 <g class="SlideGroup">
  <g>
   <g id="container-id1">
    <g id="id1" class="Slide" clip-path="url(#presentation_clip_path)">
     <g class="Page">
      <defs class="SlideBackground">
       <g id="bg-id1" class="Background">
        <path fill="rgb(255,182,193)" stroke="none" d="M 14987,29986 L -13,29986 -13,-13 29986,-13 29986,29986 14987,29986 Z"/>
       </g>
      </defs>
      <g class="com.sun.star.drawing.ClosedBezierShape">
       <g id="id3">
        <rect class="BoundingBox" stroke="none" fill="none" x="5999" y="5750" width="18003" height="19001"/>
        <path fill="rgb(255,250,250)" stroke="none" d="M 21968,7605 C 21504,7169 19588,5781 15347,5763 15347,5763 10341,5463 7903,7705 6540,9064 6061,11055 6011,13523 5961,15991 5899,20618 10353,21865 L 10353,21865 10353,23777 C 10353,23777 10323,24559 10829,24712 11451,24906 11810,24318 12397,23683 12720,23336 13173,22824 13502,22436 16545,22694 18889,22106 19154,22018 19777,21818 23249,21377 23819,16753 24400,11976 23531,8964 21968,7605 Z M 22485,16406 C 22009,20265 19183,20506 18666,20671 L 18666,20671 C 17438,20977 16175,21124 14912,21124 14542,21124 14172,21112 13801,21088 13431,21059 11874,23424 11269,24018 L 11269,24018 C 11246,24048 11217,24078 11187,24095 11134,24125 11081,24136 11022,24136 11017,24136 11005,24136 10993,24136 10887,24112 10858,23989 10858,23806 10858,23553 10876,20630 10876,20630 L 10876,20630 C 7110,19577 7333,15647 7374,13582 7415,11517 7803,9834 8954,8699 11017,6828 15270,7105 15270,7105 18860,7122 20581,8205 20981,8564 22303,9699 22979,12417 22485,16400 L 22485,16406 Z"/>
       </g>
      </g>
      <g class="com.sun.star.drawing.ClosedBezierShape">
       <g id="id4">
        <rect class="BoundingBox" stroke="none" fill="none" x="15417" y="11687" width="1917" height="1967"/>
        <path fill="rgb(255,250,250)" stroke="none" d="M 17092,13652 L 17092,13652 17092,13652 C 17050,13652 17009,13647 16974,13623 16939,13600 16904,13570 16886,13535 16868,13499 16857,13464 16857,13429 16815,12611 16428,12211 15646,12170 L 15646,12170 C 15611,12164 15573,12154 15540,12135 15502,12112 15473,12085 15452,12046 15432,12008 15417,11970 15417,11929 15417,11888 15432,11850 15452,11811 15473,11773 15502,11744 15540,11723 15579,11702 15617,11688 15658,11688 15664,11688 15664,11688 15670,11688 16704,11746 17280,12335 17332,13399 L 17332,13399 C 17332,13405 17332,13411 17332,13411 17332,13452 17324,13496 17303,13535 17282,13573 17252,13602 17215,13623 17181,13643 17144,13652 17103,13652 L 17092,13652 Z"/>
       </g>
      </g>
      <g class="com.sun.star.drawing.ClosedBezierShape">
       <g id="id5">
        <rect class="BoundingBox" stroke="none" fill="none" x="15058" y="10399" width="3516" height="3673"/>
        <path fill="rgb(255,250,250)" stroke="none" d="M 18325,14070 L 18325,14070 18325,14070 C 18284,14070 18244,14056 18208,14035 18174,14015 18143,13982 18120,13947 18096,13911 18090,13870 18090,13829 18090,13823 18090,13823 18090,13823 L 18090,13823 C 18090,13764 18090,13711 18090,13652 18090,13170 17967,12693 17720,12270 17621,12099 17503,11935 17374,11788 16874,11240 16187,10946 15282,10876 L 15282,10876 C 15247,10876 15211,10864 15176,10846 15141,10829 15109,10793 15088,10758 15067,10723 15059,10682 15059,10640 15059,10599 15067,10555 15088,10517 15109,10478 15141,10449 15176,10429 15212,10408 15258,10399 15300,10399 15305,10399 15311,10399 15317,10399 16339,10476 17150,10835 17726,11464 L 17726,11464 C 17879,11635 18018,11824 18131,12023 18417,12524 18572,13088 18572,13664 18572,13723 18572,13776 18566,13835 L 18566,13835 C 18566,13876 18556,13912 18537,13947 18514,13988 18484,14014 18449,14035 18413,14055 18372,14070 18331,14070 18325,14070 18325,14070 18325,14070 Z"/>
       </g>
      </g>
      <g class="com.sun.star.drawing.ClosedBezierShape">
       <g id="id6">
        <rect class="BoundingBox" stroke="none" fill="none" x="14612" y="9152" width="5213" height="5414"/>
        <path fill="rgb(255,250,250)" stroke="none" d="M 19588,14564 L 19588,14564 C 19583,14564 19583,14564 19583,14564 19541,14564 19500,14550 19465,14529 19430,14508 19398,14479 19377,14441 19356,14403 19348,14364 19348,14323 L 19348,14323 C 19336,12876 18901,11717 18055,10893 L 18055,10893 C 17791,10635 17497,10412 17180,10229 16498,9835 15734,9629 14953,9629 14924,9629 14894,9629 14871,9634 L 14871,9634 C 14865,9634 14859,9634 14853,9634 14806,9634 14765,9620 14730,9599 14694,9579 14662,9546 14642,9511 14621,9476 14612,9434 14612,9393 14612,9352 14621,9305 14642,9270 14662,9234 14694,9202 14730,9181 14765,9161 14806,9152 14853,9152 14859,9152 14865,9152 14871,9152 L 14871,9152 C 16269,9164 17447,9634 18384,10552 19321,11470 19812,12741 19824,14323 L 19824,14323 19824,14323 C 19824,14364 19815,14408 19794,14447 19773,14485 19743,14515 19706,14535 19667,14556 19624,14564 19583,14564 L 19588,14564 Z"/>
       </g>
      </g>
      <g class="com.sun.star.drawing.ClosedBezierShape">
       <g id="id7">
        <rect class="BoundingBox" stroke="none" fill="none" x="9976" y="9687" width="9538" height="9550"/>
        <path fill="rgb(255,250,250)" stroke="none" d="M 15705,16635 L 15705,16635 C 15723,16635 15740,16635 15758,16635 15875,16635 15986,16605 16087,16547 16139,16517 16187,16482 16228,16441 L 16580,15994 16580,15994 C 16633,15935 16698,15883 16768,15841 16886,15771 17021,15735 17156,15735 17291,15735 17426,15770 17544,15841 17550,15847 17562,15853 17567,15853 17879,16029 18167,16217 18449,16417 18731,16617 19265,17076 19265,17076 L 19265,17076 C 19330,17123 19384,17188 19424,17259 19484,17364 19512,17479 19512,17600 19512,17720 19483,17835 19424,17935 19418,17947 19412,17953 19406,17959 L 19406,17959 C 19406,17965 19406,17965 19406,17965 19212,18306 18966,18612 18672,18871 L 18672,18871 18672,18871 C 18596,18941 18506,19002 18419,19053 18265,19144 18096,19206 17926,19235 L 17926,19235 C 17902,19235 17885,19235 17867,19235 17849,19235 17832,19235 17814,19235 L 17814,19235 C 17708,19229 17603,19218 17503,19182 L 17497,19171 C 17115,19065 16486,18800 15441,18218 L 15441,18218 C 15352,18171 15264,18123 15176,18071 14665,17776 14172,17441 13707,17076 L 13707,17076 C 13437,16859 13179,16629 12932,16382 L 12902,16359 12879,16329 12879,16329 12850,16306 C 12844,16294 12832,16288 12826,16276 L 12826,16276 C 12579,16035 12350,15770 12139,15500 L 12139,15500 C 11769,15035 11440,14547 11140,14035 11093,13947 11040,13858 10993,13770 10417,12717 10147,12088 10041,11711 L 10030,11699 10030,11699 C 9994,11599 9983,11499 9983,11393 L 9983,11388 9983,11388 C 9977,11370 9977,11352 9977,11335 9977,11317 9977,11299 9983,11276 L 9983,11276 C 10012,11105 10070,10934 10159,10782 10211,10693 10276,10605 10347,10529 L 10347,10529 10347,10529 C 10605,10234 10911,9987 11246,9793 11252,9793 11252,9793 11252,9793 L 11252,9793 11252,9793 C 11257,9787 11269,9782 11275,9776 11381,9717 11498,9687 11616,9687 11733,9687 11852,9714 11957,9776 12023,9814 12086,9870 12139,9934 12192,9993 12603,10482 12791,10752 L 12791,10752 C 12985,11023 13161,11299 13326,11588 13337,11599 13343,11617 13355,11635 L 13355,11635 C 13361,11640 13367,11652 13367,11658 13437,11776 13472,11911 13472,12046 13472,12182 13434,12315 13367,12435 13328,12503 13279,12570 13220,12623 L 12773,12976 12773,12976 C 12726,13023 12692,13071 12662,13123 12604,13223 12573,13335 12573,13452 12573,13470 12573,13488 12573,13499 12573,13517 13237,16006 15705,16635 Z"/>
       </g>
      </g>
     </g>
    </g>
   </g>
  </g>
 </g>
</svg>